<svg xmlns="http://www.w3.org/2000/svg" width="30" height="30">
    <path d="M11.82 10.934c-.105-.04-.082-.378-.078-.507.106-3.124 4.29-5.846 8.547-4.5.969.306 1.627.747 2.027.547.422-.21.3-.797-.31-1.43-2.46-2.547-8.354-2.698-11.536 1.241-2.39 2.959-2.575 7.16-.407 10.189.089.118.134.236.087.295-.07.086-.384-.04-.506-.084C6.705 15.62 5.41 10.8 8.005 7.166c.59-.827 1.214-1.316 1.147-1.76-.07-.465-.665-.53-1.456-.146-3.183 1.553-5.147 7.111-2.384 11.355 2.075 3.188 6.013 4.662 9.564 3.535.14-.047.266-.054.307.01.06.093-.156.353-.235.454-1.922 2.466-6.907 2.209-9.56-1.382-.604-.818-.877-1.561-1.319-1.635-.465-.077-.711.469-.589 1.34.493 3.507 5.172 7.092 10.062 5.776 3.673-.988 6.292-4.278 6.318-8.004-.002-.148.03-.27.103-.289.108-.028.288.258.36.365 1.751 2.59-.034 7.25-4.269 8.664-.964.322-1.756.352-1.962.75-.217.417.226.82 1.092.973 3.488.615 8.344-2.727 8.603-7.784.195-3.799-2.125-7.306-5.66-8.482-.14-.044-.247-.113-.243-.188.006-.11.334-.194.458-.23 3.004-.864 6.886 2.274 6.921 6.738.008 1.016-.208 1.779.107 2.098.33.335.85.039 1.263-.737 1.663-3.127-.015-8.779-4.744-10.588-3.553-1.36-7.605-.237-9.816 2.762-.085.12-.184.2-.254.173z" />
</svg>